<svg width="256" height="180" viewBox="0 0 256 180" fill="none" xmlns="http://www.w3.org/2000/svg">
<path d="M106.553 19.6513C114.801 11.0573 126.284 5.72746 138.984 5.72746C155.866 5.72746 170.595 15.1412 178.438 29.116C185.255 26.0704 192.799 24.3764 200.738 24.3764C231.186 24.3764 255.872 49.2768 255.872 79.9916C255.872 110.71 231.186 135.61 200.738 135.61C197.022 135.61 193.39 135.239 189.878 134.528C182.97 146.849 169.808 155.174 154.7 155.174C148.376 155.174 142.394 153.713 137.068 151.115C130.066 167.586 113.752 179.134 94.7386 179.134C74.9385 179.134 58.0638 166.606 51.5864 149.035C48.7557 149.636 45.823 149.95 42.8139 149.95C19.2395 149.95 0.12793 130.641 0.12793 106.819C0.12793 90.8552 8.71466 76.9168 21.4727 69.4594C18.8461 63.4156 17.3852 56.7451 17.3852 49.7322C17.3852 22.3363 39.6262 0.128052 67.0585 0.128052C83.1646 0.128052 97.4782 7.7858 106.553 19.6513Z" fill="#D5D5D5"/>
<path d="M37.1701 92.9562C37.0098 93.3751 37.2284 93.4626 37.2794 93.5354C37.7603 93.8852 38.2485 94.1365 38.7403 94.4171C41.3487 95.8014 43.8114 96.2058 46.3871 96.2058C51.6331 96.2058 54.89 93.4152 54.89 88.9233V88.8359C54.89 84.6828 51.2142 83.1745 47.7642 82.0852L47.3161 81.9395C44.7149 81.0943 42.4708 80.3657 42.4708 78.6535V78.5624C42.4708 77.0979 43.7823 76.0195 45.8151 76.0195C48.0738 76.0195 50.7551 76.77 52.482 77.7245C52.482 77.7245 52.9883 78.0524 53.1741 77.5605C53.2761 77.2982 54.1505 74.9448 54.2416 74.6898C54.3399 74.4129 54.1651 74.2089 53.9865 74.0996C52.0156 72.901 49.2906 72.0814 46.4709 72.0814L45.9463 72.085C41.1447 72.085 37.7931 74.9849 37.7931 79.1416V79.2291C37.7931 83.6117 41.4908 85.0325 44.9554 86.0234L45.5128 86.1946C48.0374 86.9706 50.2123 87.6373 50.2123 89.4151V89.5025C50.2123 91.1274 48.7988 92.3369 46.5182 92.3369C45.633 92.3369 42.8096 92.3186 39.7603 90.3915C39.3924 90.1765 39.1774 90.0199 38.8933 89.8486C38.7439 89.7539 38.3687 89.59 38.2047 90.0854L37.1701 92.9562Z" fill="#FFFEF3"/>
<path d="M113.97 92.9562C113.81 93.3751 114.028 93.4626 114.079 93.5354C114.56 93.8852 115.048 94.1365 115.54 94.4171C118.149 95.8014 120.611 96.2058 123.187 96.2058C128.433 96.2058 131.69 93.4152 131.69 88.9233V88.8359C131.69 84.6828 128.014 83.1745 124.564 82.0852L124.116 81.9395C121.515 81.0943 119.271 80.3657 119.271 78.6535V78.5624C119.271 77.0979 120.582 76.0195 122.615 76.0195C124.874 76.0195 127.555 76.77 129.282 77.7245C129.282 77.7245 129.788 78.0524 129.974 77.5605C130.076 77.2982 130.95 74.9448 131.041 74.6898C131.14 74.4129 130.965 74.2089 130.786 74.0996C128.815 72.901 126.09 72.0814 123.271 72.0814L122.746 72.085C117.945 72.085 114.593 74.9849 114.593 79.1416V79.2291C114.593 83.6117 118.291 85.0325 121.755 86.0234L122.313 86.1946C124.837 86.9706 127.016 87.6373 127.016 89.4151V89.5025C127.016 91.1274 125.599 92.3369 123.318 92.3369C122.433 92.3369 119.609 92.3186 116.56 90.3915C116.192 90.1765 115.974 90.0272 115.697 89.8486C115.602 89.7867 115.158 89.6155 115.005 90.0854L113.97 92.9562Z" fill="#FFFEF3"/>
<path d="M166.399 84.1572C166.399 86.6965 165.925 88.6965 164.993 90.11C164.071 91.509 162.676 92.1902 160.73 92.1902C158.781 92.1902 157.393 91.5126 156.486 90.11C155.568 88.7001 155.102 86.6965 155.102 84.1572C155.102 81.6216 155.568 79.6252 156.486 78.2263C157.393 76.8419 158.781 76.168 160.73 76.168C162.676 76.168 164.071 76.8419 164.996 78.2263C165.925 79.6252 166.399 81.6216 166.399 84.1572ZM170.778 79.4504C170.348 77.9968 169.678 76.7144 168.785 75.647C167.893 74.5759 166.763 73.7162 165.423 73.0896C164.086 72.4666 162.504 72.1497 160.73 72.1497C158.952 72.1497 157.371 72.4666 156.034 73.0896C154.694 73.7162 153.564 74.5759 152.668 75.647C151.779 76.7181 151.109 78.0004 150.675 79.4504C150.249 80.8967 150.034 82.4778 150.034 84.1572C150.034 85.8367 150.249 87.4214 150.675 88.8641C151.109 90.314 151.776 91.5964 152.672 92.6675C153.564 93.7385 154.697 94.5946 156.034 95.203C157.375 95.8114 158.952 96.1211 160.73 96.1211C162.504 96.1211 164.082 95.8114 165.423 95.203C166.76 94.5946 167.893 93.7385 168.785 92.6675C169.678 91.6 170.348 90.3177 170.778 88.8641C171.208 87.4178 171.423 85.833 171.423 84.1572C171.423 82.4814 171.208 80.8967 170.778 79.4504Z" fill="#FFFEF3"/>
<path d="M206.738 91.5123C206.592 91.0861 206.18 91.2464 206.18 91.2464C205.543 91.4904 204.865 91.7163 204.144 91.8292C203.412 91.9422 202.607 92.0005 201.743 92.0005C199.623 92.0005 197.94 91.3702 196.734 90.1243C195.524 88.8784 194.847 86.8637 194.854 84.1387C194.861 81.6578 195.459 79.7925 196.534 78.3717C197.601 76.9582 199.226 76.2332 201.393 76.2332C203.2 76.2332 204.577 76.4409 206.02 76.8963C206.02 76.8963 206.366 77.0456 206.53 76.5939C206.913 75.5301 207.197 74.7687 207.605 73.5993C207.721 73.2678 207.437 73.1257 207.335 73.0856C206.767 72.8634 205.426 72.5027 204.414 72.3497C203.466 72.204 202.359 72.1275 201.128 72.1275C199.288 72.1275 197.648 72.4408 196.246 73.0674C194.847 73.6904 193.659 74.5501 192.719 75.6212C191.779 76.6923 191.065 77.9746 190.588 79.4246C190.114 80.8709 189.874 82.4593 189.874 84.1387C189.874 87.7709 190.854 90.7072 192.788 92.8566C194.727 95.0133 197.637 96.1099 201.434 96.1099C203.678 96.1099 205.98 95.6545 207.634 95.0024C207.634 95.0024 207.951 94.8494 207.813 94.4814L206.738 91.5123Z" fill="#FFFEF3"/>
<path d="M214.399 81.7249C214.607 80.315 214.997 79.1419 215.598 78.2275C216.505 76.8395 217.889 76.0781 219.835 76.0781C221.78 76.0781 223.066 76.8431 223.988 78.2275C224.6 79.1419 224.866 80.366 224.971 81.7249H214.399ZM229.143 78.6246C228.771 77.222 227.849 75.8049 227.245 75.1564C226.29 74.129 225.358 73.4114 224.432 73.0106C223.223 72.4933 221.773 72.1509 220.184 72.1509C218.334 72.1509 216.654 72.4605 215.292 73.1017C213.926 73.7429 212.778 74.6172 211.878 75.7065C210.978 76.7921 210.301 78.0854 209.871 79.5536C209.437 81.0145 209.219 82.6065 209.219 84.2859C209.219 85.9945 209.445 87.5866 209.893 89.0183C210.344 90.461 211.066 91.7324 212.042 92.7852C213.015 93.8454 214.268 94.676 215.769 95.2553C217.259 95.8309 219.07 96.1296 221.15 96.1259C225.43 96.1114 227.686 95.1569 228.614 94.6432C228.778 94.5521 228.935 94.3918 228.738 93.9328L227.769 91.2187C227.624 90.8143 227.212 90.9637 227.212 90.9637C226.152 91.3572 224.644 92.0639 221.128 92.0566C218.829 92.053 217.124 91.3754 216.057 90.3152C214.96 89.2296 214.425 87.6339 214.33 85.3825L229.154 85.3971C229.154 85.3971 229.543 85.3898 229.584 85.0109C229.598 84.8506 230.094 81.9653 229.143 78.6246Z" fill="#FFFEF3"/>
<path d="M95.6834 81.7249C95.8947 80.315 96.2809 79.1419 96.882 78.2275C97.7891 76.8395 99.1735 76.0781 101.119 76.0781C103.064 76.0781 104.35 76.8431 105.276 78.2275C105.884 79.1419 106.15 80.366 106.256 81.7249H95.6834ZM110.423 78.6246C110.052 77.222 109.134 75.8049 108.529 75.1564C107.574 74.129 106.642 73.4114 105.716 73.0106C104.507 72.4933 103.057 72.1509 101.469 72.1509C99.6215 72.1509 97.9385 72.4605 96.5759 73.1017C95.2098 73.7429 94.0622 74.6172 93.1624 75.7065C92.2625 76.7921 91.5849 78.0854 91.155 79.5536C90.7252 81.0145 90.5029 82.6065 90.5029 84.2859C90.5029 85.9945 90.7288 87.5866 91.1769 89.0183C91.6286 90.461 92.35 91.7324 93.3263 92.7852C94.299 93.8454 95.5522 94.676 97.0532 95.2553C98.5432 95.8309 100.354 96.1296 102.434 96.1259C106.715 96.1114 108.97 95.1569 109.899 94.6432C110.063 94.5521 110.219 94.3918 110.023 93.9328L109.057 91.2187C108.908 90.8143 108.496 90.9637 108.496 90.9637C107.436 91.3572 105.931 92.0639 102.409 92.0566C100.113 92.053 98.4084 91.3754 97.341 90.3152C96.2444 89.2296 95.7089 87.6339 95.6142 85.3825L110.438 85.3971C110.438 85.3971 110.828 85.3898 110.868 85.0109C110.882 84.8506 111.378 81.9653 110.423 78.6246Z" fill="#FFFEF3"/>
<path d="M63.6412 91.431C63.062 90.9683 62.9818 90.8518 62.7851 90.553C62.4936 90.0976 62.3443 89.4492 62.3443 88.6258C62.3443 87.3216 62.7742 86.3853 63.6667 85.7551C63.6558 85.7587 64.9418 84.644 67.9655 84.684C70.0895 84.7132 71.9875 85.0265 71.9875 85.0265V91.7662H71.9911C71.9911 91.7662 70.1077 92.1705 67.9874 92.2981C64.9709 92.4802 63.6303 91.4274 63.6412 91.431ZM69.5394 81.0154C68.9382 80.9717 68.1586 80.9462 67.226 80.9462C65.9546 80.9462 64.7269 81.1065 63.5756 81.4162C62.4171 81.7258 61.3752 82.2104 60.479 82.8516C59.5792 83.4964 58.8542 84.3197 58.3296 85.2961C57.805 86.2724 57.5391 87.4236 57.5391 88.7133C57.5391 90.0248 57.7649 91.1651 58.2167 92.0977C58.6684 93.034 59.3205 93.8136 60.1511 94.4147C60.9745 95.0158 61.9909 95.4566 63.1713 95.7225C64.3334 95.9885 65.6522 96.1233 67.0948 96.1233C68.614 96.1233 70.1295 95.9994 71.5977 95.7481C73.0513 95.5003 74.8364 95.1397 75.3318 95.0267C75.8237 94.9101 76.3701 94.7608 76.3701 94.7608C76.7381 94.6697 76.7089 94.2762 76.7089 94.2762L76.7016 80.7204C76.7016 77.7476 75.9075 75.5435 74.3446 74.1774C72.789 72.8149 70.4975 72.1263 67.5357 72.1263C66.4245 72.1263 64.6358 72.2794 63.5647 72.4943C63.5647 72.4943 60.326 73.1209 58.9926 74.1628C58.9926 74.1628 58.7012 74.345 58.8615 74.753L59.9107 77.5727C60.0419 77.937 60.3952 77.8132 60.3952 77.8132C60.3952 77.8132 60.5082 77.7695 60.6393 77.693C63.4918 76.141 67.0985 76.1884 67.0985 76.1884C68.7014 76.1884 69.9328 76.509 70.7634 77.1465C71.5722 77.7658 71.9839 78.7021 71.9839 80.6766V81.3033C70.7088 81.1211 69.5394 81.0154 69.5394 81.0154Z" fill="#FFFEF3"/>
<path d="M189.099 73.3775C189.212 73.0424 188.975 72.8821 188.877 72.8456C188.626 72.7473 187.365 72.4813 186.392 72.4194C184.531 72.3065 183.496 72.6198 182.571 73.0351C181.653 73.4504 180.633 74.1207 180.064 74.8821V73.0788C180.064 72.8274 179.886 72.6271 179.638 72.6271H175.838C175.591 72.6271 175.412 72.8274 175.412 73.0788V95.1886C175.412 95.4364 175.616 95.6404 175.864 95.6404H179.758C180.006 95.6404 180.206 95.4364 180.206 95.1886V84.1428C180.206 82.6601 180.37 81.181 180.698 80.252C181.019 79.334 181.456 78.5981 181.995 78.0698C182.538 77.5452 183.154 77.1773 183.828 76.9696C184.516 76.7583 185.278 76.6891 185.817 76.6891C186.593 76.6891 187.445 76.8895 187.445 76.8895C187.729 76.9223 187.89 76.7474 187.984 76.4887C188.239 75.8111 188.961 73.7819 189.099 73.3775Z" fill="#FFFEF3"/>
<path d="M152.544 63.1301C152.07 62.9844 151.64 62.886 151.079 62.7804C150.511 62.6784 149.833 62.6274 149.065 62.6274C146.383 62.6274 144.27 63.3851 142.788 64.8788C141.312 66.3652 140.31 68.6275 139.808 71.6039L139.625 72.6058H136.259C136.259 72.6058 135.851 72.5912 135.764 73.0357L135.214 76.1213C135.174 76.4128 135.301 76.5986 135.694 76.5986H138.97L135.647 95.1491C135.388 96.6428 135.09 97.8705 134.758 98.8031C134.434 99.7212 134.117 100.41 133.724 100.912C133.345 101.393 132.988 101.75 132.368 101.958C131.858 102.129 131.268 102.209 130.623 102.209C130.266 102.209 129.789 102.151 129.436 102.078C129.086 102.009 128.9 101.933 128.634 101.82C128.634 101.82 128.252 101.674 128.099 102.056C127.978 102.373 127.104 104.774 126.998 105.069C126.896 105.364 127.042 105.594 127.228 105.663C127.665 105.816 127.989 105.918 128.583 106.06C129.407 106.253 130.102 106.264 130.754 106.264C132.117 106.264 133.363 106.071 134.394 105.699C135.429 105.324 136.332 104.672 137.133 103.791C137.997 102.836 138.54 101.838 139.057 100.472C139.571 99.1237 140.012 97.4479 140.361 95.4952L143.702 76.5986H148.584C148.584 76.5986 148.995 76.6132 149.079 76.1651L149.633 73.083C149.669 72.7879 149.545 72.6058 149.148 72.6058H144.409C144.434 72.5001 144.649 70.8316 145.192 69.2614C145.425 68.5947 145.862 68.0519 146.23 67.6803C146.595 67.316 147.014 67.0574 147.473 66.908C147.942 66.755 148.478 66.6821 149.065 66.6821C149.509 66.6821 149.95 66.7331 150.281 66.8023C150.74 66.9007 150.919 66.9517 151.039 66.9881C151.524 67.1339 151.589 66.9918 151.684 66.7586L152.817 63.6474C152.934 63.3123 152.646 63.1702 152.544 63.1301Z" fill="#FFFEF3"/>
<path d="M86.3217 95.1896C86.3217 95.4373 86.1432 95.6377 85.8955 95.6377H81.9646C81.7169 95.6377 81.542 95.4373 81.542 95.1896V63.5531C81.542 63.3054 81.7169 63.105 81.9646 63.105H85.8955C86.1432 63.105 86.3217 63.3054 86.3217 63.5531V95.1896Z" fill="#FFFEF3"/>
</svg>
