<svg width="193" height="218" viewBox="0 0 193 218" fill="none" xmlns="http://www.w3.org/2000/svg">
<path d="M126.783 217.809L192.329 203.63C192.329 203.63 168.676 43.6 168.485 42.5827C168.358 41.6198 167.549 40.875 166.568 40.8387C165.66 40.8387 149.047 39.6033 149.047 39.6033C149.047 39.6033 137.465 28.0312 135.976 26.7867C135.667 26.5052 135.304 26.2781 134.904 26.1237L134.877 26.1146L126.575 217.773H126.783V217.809ZM93.8382 102.687C89.133 100.362 83.6103 98.9538 77.7607 98.8357H77.7243C64.5808 98.8357 64.0993 107.065 64.0993 109.2C64.0993 120.39 93.5293 124.778 93.5293 151.247C93.5293 172.138 80.4493 185.4 62.5915 185.4C62.2282 185.409 61.8103 185.418 61.3834 185.418C49.2027 185.418 38.2209 180.304 30.4547 172.111L30.4365 172.093L36.3043 153.145C41.936 158.086 48.9938 161.529 56.7782 162.801L57.0143 162.828C57.0961 162.828 57.196 162.837 57.2959 162.837C61.992 162.837 65.807 159.058 65.8706 154.371V154.362C65.8706 139.656 41.7634 138.975 41.7634 114.768C41.4183 94.4667 55.997 74.6559 85.5723 74.6559C86.1355 74.6287 86.7895 74.6105 87.4435 74.6105C92.9389 74.6105 98.1528 75.8367 102.822 78.0349L102.604 77.9441L94.0198 102.651L93.8382 102.742V102.687ZM88.9332 7.53917C90.3048 7.54825 91.5673 8.00242 92.5847 8.7745L92.5665 8.76542C83.6739 12.9892 73.8639 23.6167 69.8309 45.0261C63.8723 46.9608 58.0862 48.7048 52.6725 50.2762C57.414 34.0625 68.7773 7.63 88.9332 7.63V7.53917ZM100.106 34.3259V35.5522C93.2568 37.6595 85.7268 39.9485 78.3602 42.2375C80.304 30.5473 87.3981 20.8281 97.1899 15.3508L97.3807 15.2509C99.1792 20.3739 100.224 26.2872 100.224 32.4366C100.224 33.0997 100.215 33.7627 100.187 34.4167V34.3259H100.106ZM105.002 14.0337C111.305 14.7059 115.366 21.909 117.982 29.975C114.812 31.0105 111.305 32.0732 107.463 33.2995V31.0105C107.472 30.6562 107.481 30.2384 107.481 29.8115C107.481 24.1707 106.573 18.7298 104.902 13.6522L105.002 14.0156V14.0337ZM132.179 25.7422C131.997 25.7422 131.634 25.9329 131.47 25.9329C131.307 25.9329 128.845 26.6142 124.985 27.8404C121.143 16.6407 114.303 6.31292 102.204 6.31292H101.159C98.5797 2.68867 94.4922 0.2725 89.8324 0H89.7961C61.5833 0 48.1036 35.2161 43.8798 53.1012C33.0343 56.4166 25.1409 58.8782 24.2598 59.2233C18.1286 61.1581 17.956 61.3307 17.2475 67.1258C16.5663 71.3223 0.625 194.865 0.625 194.865L123.804 218L132.224 25.7422H132.179Z" fill="#D5D5D5"/>
</svg>
