<svg width="179" height="71" viewBox="0 0 179 71" fill="none" xmlns="http://www.w3.org/2000/svg">
<path d="M102.41 2.00461C98.8602 3.86174 97.5401 7.0017 97.5401 15.6683C97.5401 15.6683 99.3375 13.9305 102 12.9609C103.939 12.2598 105.603 11.1933 106.565 10.4922C109.555 8.29199 110.025 5.46528 110.025 0.706866C110.025 0.706866 105.133 0.572614 102.41 2.00461V2.00461ZM81.3779 4.03328C78.484 6.58403 77.6338 10.6488 77.6338 10.6488L68.0573 47.754L60.0918 17.3762C59.3161 14.1468 57.9214 10.1566 55.7063 7.45666C52.887 4.02582 47.159 3.80207 46.5475 3.80207C45.9359 3.80207 40.2079 4.02582 37.3886 7.45666C35.181 10.1566 33.7788 14.1468 33.0031 17.3762L25.0376 47.7466L15.4611 10.6414C15.4611 10.6414 14.6183 6.57658 11.732 4.02583C7.02575 -0.0986327 0 0.781447 0 0.781447L18.34 70.1216C18.34 70.1216 24.3888 70.5616 27.4168 69.0177C31.3921 66.9891 33.2865 65.4228 35.6956 55.988C37.8361 47.5825 43.8326 22.873 44.392 21.1129C44.6754 20.2477 45.026 18.1668 46.5549 18.1668C48.1063 18.1668 48.4344 20.2402 48.7029 21.1129C49.2548 22.873 55.2663 47.5825 57.4068 55.988C59.8158 65.4228 61.7028 66.9891 65.6855 69.0177C68.7062 70.5616 74.7549 70.1216 74.7549 70.1216L93.1024 0.781447C93.1024 0.781447 86.0692 -0.0986336 81.3779 4.03328V4.03328ZM110.018 12.1032C110.018 12.1032 108.869 13.8783 106.251 15.3401C104.573 16.2799 102.962 16.9213 101.224 17.7492C98.3307 19.1364 97.5401 20.6877 97.5401 23.0446V70.129C97.5401 70.129 102.164 70.7182 105.2 69.1744C109.093 67.1904 109.988 65.2737 110.025 56.6444V14.6167H110.018V12.1032ZM155.737 35.6193L179 1.01266C179 1.01266 169.177 -0.65801 164.315 3.76478C161.204 6.59895 157.729 11.693 157.729 11.693L149.167 24.0365C148.749 24.678 148.197 25.379 147.339 25.379C146.467 25.379 145.922 24.678 145.512 24.0365L136.95 11.693C136.95 11.693 133.467 6.59895 130.357 3.76478C125.494 -0.65801 115.671 1.0052 115.671 1.0052L138.941 35.6193L115.731 70.1216C115.731 70.1216 125.964 71.4193 130.827 66.9891C133.937 64.1549 136.942 59.5457 136.942 59.5457L145.512 47.2096C145.922 46.5682 146.467 45.8671 147.339 45.8671C148.205 45.8671 148.749 46.5682 149.167 47.2096L157.729 59.5457C157.729 59.5457 160.914 64.1549 164.024 66.9891C168.887 71.4193 178.94 70.1216 178.94 70.1216L155.737 35.6193Z" fill="#D5D5D5"/>
</svg>
