<svg width="256" height="153" viewBox="0 0 256 153" fill="none" xmlns="http://www.w3.org/2000/svg">
<path fill-rule="evenodd" clip-rule="evenodd" d="M232.138 0H23.7594C10.5722 0 -0.103145 10.78 0.000751999 23.8625V103.404C0.000751999 116.591 10.6769 127.267 23.8641 127.267H122.558L167.667 152.385L157.41 127.267H232.138C245.325 127.267 256 116.591 256 103.404V23.8625C256 10.6753 245.325 0 232.138 0ZM19.3641 18.4201C16.4336 18.6295 14.2357 19.6761 12.7705 21.6646C11.3053 23.5485 10.782 25.9557 11.0959 28.6768C17.2709 67.9247 23.0272 94.4034 28.3649 108.114C30.4581 113.137 32.8653 115.545 35.6911 115.336C40.0868 115.021 45.3198 108.951 51.4947 97.1248C54.7392 90.426 59.7629 80.3792 66.5658 66.9824C72.2172 86.763 79.962 101.625 89.6958 111.568C92.4172 114.393 95.2429 115.649 97.9636 115.44C100.371 115.231 102.255 113.975 103.511 111.672C104.557 109.684 104.976 107.381 104.767 104.765C104.139 95.2408 105.081 81.9489 107.697 64.8893C110.418 47.3064 113.767 34.6425 117.849 27.1069C118.687 25.5371 119 23.9671 118.896 22.0833C118.687 19.676 117.64 17.6875 115.652 16.1176C113.663 14.5478 111.465 13.8151 109.058 14.0244C106.023 14.2338 103.72 15.699 102.15 18.6295C95.6616 30.4561 91.0561 49.6089 88.3354 76.1925C84.358 66.1452 81.0087 54.3186 78.3923 40.3988C77.2413 34.2239 74.4156 31.2933 69.8102 31.6073C66.6704 31.8166 64.054 33.9099 61.9608 37.8869L39.0402 81.5302C35.2724 66.3545 31.714 47.8297 28.4695 25.9557C27.7369 20.5134 24.7017 18.0015 19.3641 18.4201ZM221.044 25.956C228.475 27.526 234.022 31.503 237.79 38.0966C241.139 43.7483 242.813 50.5512 242.813 58.7146C242.813 69.4944 240.092 79.3325 234.65 88.3334C228.37 98.7995 220.207 104.032 210.055 104.032C208.276 104.032 206.392 103.823 204.403 103.404C196.972 101.835 191.425 97.8578 187.657 91.2641C184.309 85.5076 182.634 78.6002 182.634 70.5411C182.634 59.7612 185.355 49.9232 190.797 41.0271C197.182 30.5611 205.345 25.3281 215.393 25.3281C217.172 25.3281 219.056 25.5374 221.044 25.956ZM216.649 82.5769C220.521 79.1232 223.137 73.9948 224.603 67.0874C225.022 64.6803 225.335 62.0638 225.335 59.3426C225.335 56.3075 224.707 53.063 223.451 49.8185C221.881 45.7368 219.788 43.5389 217.276 43.0156C213.509 42.283 209.846 44.3762 206.392 49.5046C203.566 53.4816 201.786 57.668 200.845 61.9591C200.321 64.3663 200.112 66.983 200.112 69.5994C200.112 72.6344 200.74 75.8788 201.996 79.1232C203.566 83.2049 205.659 85.4026 208.171 85.9263C210.787 86.4493 213.613 85.2983 216.649 82.5769ZM172.168 38.0966C168.4 31.503 162.748 27.526 155.422 25.956C153.433 25.5374 151.55 25.3281 149.77 25.3281C139.723 25.3281 131.56 30.5611 125.175 41.0271C119.733 49.9232 117.012 59.7612 117.012 70.5411C117.012 78.6002 118.687 85.5076 122.035 91.2641C125.803 97.8578 131.35 101.835 138.781 103.404C140.769 103.823 142.653 104.032 144.433 104.032C154.585 104.032 162.748 98.7995 169.028 88.3334C174.47 79.3325 177.191 69.4944 177.191 58.7146C177.191 50.5512 175.516 43.7483 172.168 38.0966ZM158.98 67.0874C157.515 73.9948 154.898 79.1232 151.026 82.5769C147.991 85.2983 145.165 86.4493 142.549 85.9263C140.037 85.4026 137.944 83.2049 136.374 79.1232C135.118 75.8788 134.49 72.6344 134.49 69.5994C134.49 66.983 134.699 64.3663 135.223 61.9591C136.165 57.668 137.944 53.4816 140.769 49.5046C144.224 44.3762 147.887 42.283 151.654 43.0156C154.166 43.5389 156.259 45.7368 157.829 49.8185C159.085 53.063 159.713 56.3075 159.713 59.3426C159.713 62.0638 159.504 64.6803 158.98 67.0874Z" fill="#D5D5D5"/>
</svg>
