<svg width="204" height="204" viewBox="0 0 204 204" fill="none" xmlns="http://www.w3.org/2000/svg">
<path d="M107.483 116.135H133.212C140.531 116.135 145.163 112.106 145.163 105.638C145.163 99.5435 140.531 95.149 133.212 95.149H107.483C106.633 95.149 105.893 95.88 105.893 96.611V114.673C106.021 115.523 106.624 116.135 107.483 116.135V116.135ZM107.483 157.751H134.071C142.239 157.751 147.118 153.603 147.118 146.276C147.118 139.935 142.486 134.801 134.071 134.801H107.483C106.633 134.801 105.893 135.541 105.893 136.272V156.162C106.021 157.139 106.624 157.751 107.483 157.751ZM201.62 0.450475L125.52 76.3555H137.964C157.352 76.3555 168.819 88.553 168.819 101.855C168.819 112.353 161.747 120.045 154.182 123.454C152.966 123.947 152.966 125.655 154.301 126.14C163.081 129.557 169.303 138.72 169.303 149.447C169.303 164.577 159.188 176.664 139.553 176.664H85.6464C84.7964 176.664 84.0569 175.933 84.0569 175.202V117.725L0.527402 200.94C-0.577598 202.045 0.161901 203.991 1.7429 203.991H202.606C202.961 203.987 203.3 203.844 203.551 203.593C203.802 203.342 203.945 203.003 203.949 202.648V1.54697C204.315 0.203974 202.606 -0.527025 201.629 0.441975L201.62 0.450475Z" fill="#D5D5D5"/>
</svg>
